<?xml version="1.0" encoding="UTF-8"?>
<svg id="a" xmlns="http://www.w3.org/2000/svg" viewBox="0 0 382.822 141.569">
  <path d="m52.469,79.327c-3.432,1.391-6.957,2.481-10.522,3.449-3.346,1.914-7,3.246-10.658,4.514l-19.857,53.342h14.953l4.688-14.062h24.656l4.734,14.062h14.953l-22.947-61.305Zm-17.6,35.851l8.484-25.547,8.578,25.547h-17.062Z" />
  <path d="m110.76,135.475c-3.344,4.062-7.969,6.094-13.875,6.094-5.438,0-9.586-1.562-12.445-4.688s-4.32-7.703-4.383-13.734v-33.235h13.547v32.804c0,5.287,2.406,7.931,7.219,7.931,4.594,0,7.75-1.596,9.469-4.787v-35.948h13.594v50.719h-12.75l-.375-5.156Z" />
  <path d="m162.51,72.381h14.062v47.25c0,4.344-.961,8.18-2.883,11.508s-4.633,5.898-8.133,7.711c-3.5,1.812-7.453,2.719-11.859,2.719-7.219,0-12.844-1.836-16.875-5.508s-6.047-8.867-6.047-15.586h14.156c0,3.344.703,5.812,2.109,7.406s3.625,2.391,6.656,2.391c2.688,0,4.828-.922,6.422-2.766s2.391-4.469,2.391-7.875v-47.25Z"  />
  <path d="m211.072,141.569c-7.438,0-13.492-2.281-18.164-6.844s-7.007-10.641-7.007-18.235v-1.312c0-5.093.984-9.648,2.953-13.664,1.969-4.015,4.758-7.109,8.367-9.281,3.609-2.172,7.727-3.258,12.352-3.258,6.938,0,12.398,2.188,16.383,6.562,3.984,4.375,5.977,10.578,5.977,18.609v5.532h-32.297c.438,3.312,1.758,5.969,3.961,7.969s4.992,3,8.367,3c5.219,0,9.297-1.891,12.234-5.672l6.656,7.453c-2.031,2.875-4.781,5.117-8.25,6.727s-7.312,2.414-11.531,2.414Zm-1.547-41.672c-2.688,0-4.867.91-6.539,2.731-1.672,1.82-2.742,4.426-3.211,7.815h18.844v-1.083c-.062-3.014-.875-5.344-2.438-6.992-1.562-1.647-3.781-2.472-6.656-2.472Z" />
  <path d="m255.181,129.71h24.797v10.922h-42.094v-8.25l23.859-31.547h-23.156v-10.922h40.641v7.981l-24.047,31.816Z"  />
  <path d="m318.838,135.475c-3.344,4.062-7.969,6.094-13.875,6.094-5.438,0-9.586-1.562-12.445-4.688s-4.32-7.703-4.383-13.734v-33.235h13.547v32.804c0,5.287,2.406,7.931,7.219,7.931,4.594,0,7.75-1.596,9.469-4.787v-35.948h13.594v50.719h-12.75l-.375-5.156Z"  />
  <path d="m369.65,126.616c0-1.656-.82-2.961-2.461-3.914s-4.273-1.805-7.898-2.555c-12.062-2.531-18.094-7.657-18.094-15.375,0-4.5,1.867-8.257,5.602-11.273,3.734-3.016,8.617-4.523,14.648-4.523,6.438,0,11.586,1.516,15.445,4.547,3.859,3.031,5.789,6.969,5.789,11.812h-13.547c0-1.938-.625-3.539-1.875-4.805s-3.203-1.898-5.859-1.898c-2.281,0-4.047.516-5.297,1.547s-1.875,2.344-1.875,3.938c0,1.5.711,2.711,2.133,3.633,1.422.922,3.82,1.719,7.195,2.391,3.375.672,6.219,1.43,8.531,2.273,7.156,2.625,10.734,7.172,10.734,13.641,0,4.625-1.984,8.367-5.953,11.227s-9.094,4.289-15.375,4.289c-4.25,0-8.023-.758-11.32-2.273s-5.883-3.594-7.758-6.234-2.812-5.492-2.812-8.555h12.844c.125,2.406,1.016,4.25,2.672,5.531s3.875,1.922,6.656,1.922c2.594,0,4.555-.492,5.883-1.477s1.992-2.273,1.992-3.867Z"  />
  <path d="m23.807,81.999c-5.226.527-10.394-.005-15.459-1.385-.931-.254-1.849-.702-2.66-1.232-1.389-.906-1.604-2.166-.653-3.533.488-.701,1.072-1.368,1.724-1.916,3.469-2.916,7.52-4.852,11.585-6.751.167-.077.508.013.661.146,1.128.983,2.469,1.46,3.911,1.69.679.108,1.104-.196,1.165-.75.063-.562-.313-.804-.992-.964-1.013-.239-2.024-.554-2.967-.986-.34-.155-.625-.726-.682-1.141-.142-1.066-.141-2.154-.202-3.231-.234-4.045-.276-8.108-1.058-12.108-.132-.67.147-.999.908-1.208.462-.128.933-.237,1.374-.416,1.307-.528,2.061-1.975,1.777-3.349-.1-.483-.372-.793-.888-.76-.503.031-.777.334-.809.843-.007.119-.008.239-.005.359.024.783-.349,1.268-1.099,1.474-.44.123-.898.202-1.31.387-.337.152-.759.365-.893.664-.287.64-.699.567-1.227.461-1.996-.399-3.99-.829-6.002-1.135-2.266-.343-4.098.432-5.379,2.398-.394.604-.828,1.18-1.271,1.748-.353.454-.716.905-1.123,1.307-.466.461-1.077.999-1.689.596-.364-.241-.557-.994-.544-1.51.097-4.065,1.115-7.916,2.903-11.56.218-.443.582-.821.895-1.215,3.608-4.563,8.256-7.328,14.003-8.36,3.051-.547,5.937-.411,8.618,1.217,1.904,1.157,3.838,2.307,5.581,3.687,7.63,6.045,14.193,13.108,19.747,21.103.213.305.395.463.812.376,1.338-.277,2.684-.539,4.037-.733,3.546-.507,7.104-.815,10.681-.363,1.534.193,3.034.526,4.329,1.438,1.768,1.246,2.022,3.4.576,4.993-.383.422-.813.842-1.302,1.121-1.415.806-2.831,1.624-4.315,2.284-2.869,1.28-5.829,2.362-8.673,3.695-3.95,1.853-7.799,3.918-11.741,5.785-4.756,2.254-9.675,4.101-14.749,5.588-2.53.424-5.047.987-7.595,1.241Zm22.38-16.454c1.095-.619,2.068-1.458,3.067-2.237.472-.367.609-.879.18-1.385-.367-.432-.878-.347-1.424.198-1.653,1.654-3.74,2.572-5.851,3.439-3.343,1.371-6.823,2.289-10.33,3.118-.163.04-.328.076-.491.116-.578.142-.906.498-.75,1.096.145.559.587.726,1.132.588,1.165-.293,2.326-.594,3.489-.892,3.794-.974,7.543-2.108,10.978-4.041Z" />
  <path d="m122.471,43.546c-.626,0-1.991-.146-4.093-.437-.179,3.377-.268,9.292-.268,17.746,0,.895-.291,1.649-.872,2.265-.582.615-1.309.922-2.181.922-.895,0-1.633-.308-2.214-.922-.582-.615-.873-1.37-.873-2.265v-9.862c0-3.288.201-7.917.604-13.888.447-6.463.693-11.092.738-13.888v-4.629c0-2.214.134-3.824.403-4.831.514-1.968,1.61-2.818,3.288-2.55.715-.223,1.733-.391,3.053-.503,1.319-.112,2.94-.168,4.864-.168,4.092,0,7.928,1.398,11.506,4.193,3.936,3.086,5.904,6.799,5.904,11.137,0,5.547-2.103,9.963-6.307,13.251-3.757,2.952-8.275,4.428-13.553,4.428Zm1.677-26.636c-.984,0-1.862.022-2.633.067-.771.045-1.426.112-1.962.201l-.067,6.172-.705,13.352,3.69.436c3.757,0,6.922-.95,9.494-2.851,2.818-2.08,4.227-4.886,4.227-8.42,0-2.504-1.342-4.663-4.026-6.474-2.482-1.655-5.155-2.482-8.018-2.482Z"  />
  <path d="m157.561,36.87l-.503,16.672c0,1.767-.09,4.361-.269,7.783-.224,2.236-1.32,3.354-3.287,3.354-2.192,0-3.288-1.141-3.288-3.421,0-2.706.123-6.771.369-12.194.246-5.423.369-9.488.369-12.194,0-3.534.056-7.576.168-12.127.111-4.551.167-8.593.167-12.127,0-2.236,1.096-3.355,3.288-3.355,2.214,0,3.321,1.119,3.321,3.355,0,3.534-.057,7.576-.168,12.127-.112,4.551-.168,8.593-.168,12.127Z" />
  <path d="m194.058,65.451c-.425,0-1.196-.492-2.314-1.476-1.007-.917-1.756-1.732-2.248-2.449-2.146,1.163-4.037,2.041-5.668,2.633-1.633.592-2.997.889-4.093.889-5.233,0-9.046-1.476-11.439-4.428-2.259-2.773-3.388-7.022-3.388-12.748,0-5.412,1.861-10.041,5.585-13.888,3.724-3.846,8.169-5.77,13.335-5.77,1.945,0,4.125.503,6.542,1.51,3.041,1.253,4.562,2.762,4.562,4.529,0,.604-.224,1.141-.671,1.61-.224.85-.396,2.248-.52,4.193-.123,1.946-.196,4.44-.218,7.481-.022,2.773.167,4.965.57,6.575.223.984.928,2.952,2.113,5.904.156.402.413.995.771,1.778l.201.57c0,.894-.313,1.632-.939,2.214s-1.354.872-2.181.872Zm-6.977-23.314c0-.961.061-2.007.184-3.137.123-1.129.308-2.332.554-3.606-.828-.425-1.538-.738-2.129-.939-.593-.201-1.068-.302-1.426-.302-3.467,0-6.458,1.415-8.974,4.244-2.517,2.829-3.774,6.088-3.774,9.778,0,3.668.648,6.419,1.946,8.252,1.296,1.834,3.242,2.751,5.837,2.751,2.146,0,3.969-.391,5.468-1.174.805-.424,1.934-1.274,3.387-2.549-.716-5.926-1.073-10.366-1.073-13.318Z"  />
  <path d="m232.267,33.314l-11.606,25.093c-2.863,6.105-5.055,11.215-6.575,15.331l-2.214,6.508c-.582,1.61-1.589,2.416-3.02,2.416-.939,0-1.75-.308-2.432-.922-.683-.616-1.023-1.381-1.023-2.298,0-2.236,2.415-8.711,7.246-19.423l-12.01-23.114-1.51-2.449c-.604-1.028-.905-1.89-.905-2.583,0-.917.352-1.722,1.057-2.416.704-.693,1.492-1.04,2.364-1.04,1.029,0,1.823.391,2.382,1.174,3.802,5.278,7.884,12.793,12.245,22.543l4.965-11.573c1.789-4.003,3.511-7.447,5.166-10.332.715-1.252,1.654-1.879,2.817-1.879.917,0,1.728.325,2.433.973.704.649,1.057,1.42,1.057,2.314,0,.492-.146,1.051-.437,1.677Z"  />
  <path d="m296.406,0c-20.588,0-37.277,16.689-37.277,37.277s16.689,37.277,37.277,37.277,37.277-16.689,37.277-37.277S316.994,0,296.406,0Zm-23.457,28.414c-.352.932-1.24,1.508-2.181,1.508-.273,0-.552-.049-.825-.151-1.205-.454-1.811-1.799-1.356-3.004,2.862-7.572,8.781-13.727,16.244-16.882,1.179-.499,2.552.049,3.055,1.238.501,1.186-.051,2.552-1.238,3.055-6.295,2.666-11.287,7.854-13.699,14.237Zm23.457,22.956c-7.782,0-14.093-6.311-14.093-14.093s6.311-14.093,14.093-14.093,14.093,6.311,14.093,14.093-6.311,14.093-14.093,14.093Z" />
  <circle cx="296.406" cy="37.277" r="4.694" />
  <path d="m46.67,59.407c-2.571,3.201-6.25,4.858-10.216,5.618-2.376.455-4.81.542-7.225.557-1.284.008-2.569-.005-3.853-.034-.901-.021-1.703-.008-2.47-.523-2.678-1.8-5.183,2.529-2.524,4.317,2.258,1.518,5.289,1.232,7.882,1.241,3.03.011,6.056-.128,9.046-.65,4.867-.85,9.748-3.073,12.895-6.99.845-1.052,1.028-2.508,0-3.536-.875-.875-2.686-1.058-3.536,0h0Z" />
  <path d="m19.37,41.743c.048.094.093.189.136.286l-.252-.597c.14.34.233.691.284,1.056l-.089-.665c.047.392.044.782-.005,1.174l.089-.665c-.063.446-.182.876-.356,1.292l.252-.597c-.17.388-.382.75-.639,1.086l.391-.506c-.229.288-.485.546-.773.774l.506-.391c-.272.207-.562.38-.875.517l.597-.252c-.073.03-.147.059-.221.086-.623.228-1.15.56-1.494,1.149-.314.536-.446,1.326-.252,1.926.196.605.571,1.189,1.149,1.494.567.299,1.301.481,1.926.252,1.007-.369,1.913-.884,2.664-1.665s1.248-1.655,1.636-2.654c.71-1.825.53-3.898-.356-5.623-.598-1.166-2.329-1.601-3.42-.897-1.189.767-1.537,2.174-.897,3.42h0Z" />
</svg>