<?xml version="1.0" encoding="utf-8"?>
<!-- Generator: Adobe Illustrator 27.3.1, SVG Export Plug-In . SVG Version: 6.00 Build 0)  -->
<svg version="1.1" id="Layer_1" xmlns="http://www.w3.org/2000/svg" xmlns:xlink="http://www.w3.org/1999/xlink" x="0px" y="0px"
	 viewBox="0 0 400 180" style="enable-background:new 0 0 400 180; fill: #fafafa;" xml:space="preserve">
<g>
	<path d="M58.91,86.79c-3.43,1.39-6.96,2.48-10.52,3.45c-3.35,1.91-7,3.25-10.66,4.51L17.88,148.1h14.95l4.69-14.06h24.66
		l4.73,14.06h14.95L58.91,86.79z M41.31,122.64L49.8,97.1l8.58,25.55H41.31z"/>
	<path d="M117.2,142.94c-3.34,4.06-7.97,6.09-13.88,6.09c-5.44,0-9.59-1.56-12.45-4.69s-4.32-7.7-4.38-13.73V97.38h13.55v32.8
		c0,5.29,2.41,7.93,7.22,7.93c4.59,0,7.75-1.6,9.47-4.79V97.38h13.59v50.72h-12.75L117.2,142.94z"/>
	<path d="M168.95,79.85h14.06v47.25c0,4.34-0.96,8.18-2.88,11.51s-4.63,5.9-8.13,7.71c-3.5,1.81-7.45,2.72-11.86,2.72
		c-7.22,0-12.84-1.84-16.88-5.51s-6.05-8.87-6.05-15.59h14.16c0,3.34,0.7,5.81,2.11,7.41s3.62,2.39,6.66,2.39
		c2.69,0,4.83-0.92,6.42-2.77s2.39-4.47,2.39-7.88V79.85z"/>
	<path d="M217.52,149.03c-7.44,0-13.49-2.28-18.16-6.84s-7.01-10.64-7.01-18.23v-1.31c0-5.09,0.98-9.65,2.95-13.66
		c1.97-4.02,4.76-7.11,8.37-9.28c3.61-2.17,7.73-3.26,12.35-3.26c6.94,0,12.4,2.19,16.38,6.56c3.98,4.38,5.98,10.58,5.98,18.61v5.53
		h-32.3c0.44,3.31,1.76,5.97,3.96,7.97s4.99,3,8.37,3c5.22,0,9.3-1.89,12.23-5.67l6.66,7.45c-2.03,2.88-4.78,5.12-8.25,6.73
		S221.73,149.03,217.52,149.03z M215.97,107.36c-2.69,0-4.87,0.91-6.54,2.73c-1.67,1.82-2.74,4.43-3.21,7.82h18.84v-1.08
		c-0.06-3.01-0.88-5.34-2.44-6.99C221.06,108.19,218.84,107.36,215.97,107.36z"/>
	<path d="M261.63,137.17h24.8v10.92h-42.09v-8.25l23.86-31.55h-23.16V97.38h40.64v7.98L261.63,137.17z"/>
	<path d="M325.28,142.94c-3.34,4.06-7.97,6.09-13.88,6.09c-5.44,0-9.59-1.56-12.45-4.69s-4.32-7.7-4.38-13.73V97.38h13.55v32.8
		c0,5.29,2.41,7.93,7.22,7.93c4.59,0,7.75-1.6,9.47-4.79V97.38h13.59v50.72h-12.75L325.28,142.94z"/>
	<path d="M376.09,134.08c0-1.66-0.82-2.96-2.46-3.91s-4.27-1.8-7.9-2.55c-12.06-2.53-18.09-7.66-18.09-15.38
		c0-4.5,1.87-8.26,5.6-11.27c3.73-3.02,8.62-4.52,14.65-4.52c6.44,0,11.59,1.52,15.45,4.55c3.86,3.03,5.79,6.97,5.79,11.81h-13.55
		c0-1.94-0.62-3.54-1.88-4.8s-3.2-1.9-5.86-1.9c-2.28,0-4.05,0.52-5.3,1.55s-1.88,2.34-1.88,3.94c0,1.5,0.71,2.71,2.13,3.63
		c1.42,0.92,3.82,1.72,7.2,2.39c3.38,0.67,6.22,1.43,8.53,2.27c7.16,2.62,10.73,7.17,10.73,13.64c0,4.62-1.98,8.37-5.95,11.23
		s-9.09,4.29-15.38,4.29c-4.25,0-8.02-0.76-11.32-2.27s-5.88-3.59-7.76-6.23s-2.81-5.49-2.81-8.55h12.84
		c0.12,2.41,1.02,4.25,2.67,5.53s3.88,1.92,6.66,1.92c2.59,0,4.55-0.49,5.88-1.48S376.09,135.67,376.09,134.08z"/>
</g>
<g>
	<path d="M30.25,89.46c-5.23,0.53-10.39,0-15.46-1.39c-0.93-0.25-1.85-0.7-2.66-1.23c-1.39-0.91-1.6-2.17-0.65-3.53
		c0.49-0.7,1.07-1.37,1.72-1.92c3.47-2.92,7.52-4.85,11.59-6.75c0.17-0.08,0.51,0.01,0.66,0.15c1.13,0.98,2.47,1.46,3.91,1.69
		c0.68,0.11,1.1-0.2,1.17-0.75c0.06-0.56-0.31-0.8-0.99-0.96c-1.01-0.24-2.02-0.55-2.97-0.99c-0.34-0.16-0.63-0.73-0.68-1.14
		c-0.14-1.07-0.14-2.15-0.2-3.23c-0.23-4.05-0.28-8.11-1.06-12.11c-0.13-0.67,0.15-1,0.91-1.21c0.46-0.13,0.93-0.24,1.37-0.42
		c1.31-0.53,2.06-1.97,1.78-3.35c-0.1-0.48-0.37-0.79-0.89-0.76c-0.5,0.03-0.78,0.33-0.81,0.84c-0.01,0.12-0.01,0.24-0.01,0.36
		c0.02,0.78-0.35,1.27-1.1,1.47c-0.44,0.12-0.9,0.2-1.31,0.39c-0.34,0.15-0.76,0.37-0.89,0.66c-0.29,0.64-0.7,0.57-1.23,0.46
		c-2-0.4-3.99-0.83-6-1.13c-2.27-0.34-4.1,0.43-5.38,2.4c-0.39,0.6-0.83,1.18-1.27,1.75c-0.35,0.45-0.72,0.9-1.12,1.31
		c-0.47,0.46-1.08,1-1.69,0.6c-0.36-0.24-0.56-0.99-0.54-1.51c0.1-4.06,1.11-7.92,2.9-11.56c0.22-0.44,0.58-0.82,0.89-1.21
		c3.61-4.56,8.26-7.33,14-8.36c3.05-0.55,5.94-0.41,8.62,1.22c1.9,1.16,3.84,2.31,5.58,3.69c7.63,6.04,14.19,13.11,19.75,21.1
		c0.21,0.31,0.39,0.46,0.81,0.38c1.34-0.28,2.68-0.54,4.04-0.73c3.55-0.51,7.1-0.82,10.68-0.36c1.53,0.19,3.03,0.53,4.33,1.44
		c1.77,1.25,2.02,3.4,0.58,4.99c-0.38,0.42-0.81,0.84-1.3,1.12c-1.41,0.81-2.83,1.62-4.31,2.28c-2.87,1.28-5.83,2.36-8.67,3.7
		c-3.95,1.85-7.8,3.92-11.74,5.79c-4.76,2.25-9.68,4.1-14.75,5.59C35.32,88.65,32.8,89.21,30.25,89.46z M52.63,73.01
		c1.1-0.62,2.07-1.46,3.07-2.24c0.47-0.37,0.61-0.88,0.18-1.39c-0.37-0.43-0.88-0.35-1.42,0.2c-1.65,1.65-3.74,2.57-5.85,3.44
		c-3.34,1.37-6.82,2.29-10.33,3.12c-0.16,0.04-0.33,0.08-0.49,0.12c-0.58,0.14-0.91,0.5-0.75,1.1c0.15,0.56,0.59,0.73,1.13,0.59
		c1.16-0.29,2.33-0.59,3.49-0.89C45.45,76.08,49.2,74.94,52.63,73.01z"/>
</g>
<g>
	<path d="M128.92,51.01c-0.63,0-1.99-0.15-4.09-0.44c-0.18,3.38-0.27,9.29-0.27,17.75c0,0.9-0.29,1.65-0.87,2.26
		c-0.58,0.61-1.31,0.92-2.18,0.92c-0.9,0-1.63-0.31-2.21-0.92c-0.58-0.62-0.87-1.37-0.87-2.26v-9.86c0-3.29,0.2-7.92,0.6-13.89
		c0.45-6.46,0.69-11.09,0.74-13.89v-4.63c0-2.21,0.13-3.82,0.4-4.83c0.51-1.97,1.61-2.82,3.29-2.55c0.72-0.22,1.73-0.39,3.05-0.5
		c1.32-0.11,2.94-0.17,4.86-0.17c4.09,0,7.93,1.4,11.51,4.19c3.94,3.09,5.9,6.8,5.9,11.14c0,5.55-2.1,9.96-6.31,13.25
		C138.71,49.53,134.19,51.01,128.92,51.01z M130.59,24.37c-0.98,0-1.86,0.02-2.63,0.07c-0.77,0.04-1.43,0.11-1.96,0.2l-0.07,6.17
		l-0.7,13.35l3.69,0.44c3.76,0,6.92-0.95,9.49-2.85c2.82-2.08,4.23-4.89,4.23-8.42c0-2.5-1.34-4.66-4.03-6.47
		C136.13,25.2,133.46,24.37,130.59,24.37z"/>
	<path d="M164.01,44.33l-0.5,16.67c0,1.77-0.09,4.36-0.27,7.78c-0.22,2.24-1.32,3.35-3.29,3.35c-2.19,0-3.29-1.14-3.29-3.42
		c0-2.71,0.12-6.77,0.37-12.19c0.25-5.42,0.37-9.49,0.37-12.19c0-3.53,0.06-7.58,0.17-12.13c0.11-4.55,0.17-8.59,0.17-12.13
		c0-2.24,1.1-3.35,3.29-3.35c2.21,0,3.32,1.12,3.32,3.35c0,3.53-0.06,7.58-0.17,12.13C164.06,36.76,164.01,40.8,164.01,44.33z"/>
	<path d="M200.5,72.92c-0.42,0-1.2-0.49-2.31-1.48c-1.01-0.92-1.76-1.73-2.25-2.45c-2.15,1.16-4.04,2.04-5.67,2.63
		c-1.63,0.59-3,0.89-4.09,0.89c-5.23,0-9.05-1.48-11.44-4.43c-2.26-2.77-3.39-7.02-3.39-12.75c0-5.41,1.86-10.04,5.58-13.89
		c3.72-3.85,8.17-5.77,13.33-5.77c1.95,0,4.13,0.5,6.54,1.51c3.04,1.25,4.56,2.76,4.56,4.53c0,0.6-0.22,1.14-0.67,1.61
		c-0.22,0.85-0.4,2.25-0.52,4.19c-0.12,1.95-0.2,4.44-0.22,7.48c-0.02,2.77,0.17,4.96,0.57,6.58c0.22,0.98,0.93,2.95,2.11,5.9
		c0.16,0.4,0.41,1,0.77,1.78l0.2,0.57c0,0.89-0.31,1.63-0.94,2.21S201.33,72.92,200.5,72.92z M193.53,49.6
		c0-0.96,0.06-2.01,0.18-3.14c0.12-1.13,0.31-2.33,0.55-3.61c-0.83-0.42-1.54-0.74-2.13-0.94c-0.59-0.2-1.07-0.3-1.43-0.3
		c-3.47,0-6.46,1.41-8.97,4.24c-2.52,2.83-3.77,6.09-3.77,9.78c0,3.67,0.65,6.42,1.95,8.25c1.3,1.83,3.24,2.75,5.84,2.75
		c2.15,0,3.97-0.39,5.47-1.17c0.8-0.42,1.93-1.27,3.39-2.55C193.88,56.99,193.53,52.55,193.53,49.6z"/>
	<path d="M238.71,40.78l-11.61,25.09c-2.86,6.11-5.05,11.22-6.58,15.33l-2.21,6.51c-0.58,1.61-1.59,2.42-3.02,2.42
		c-0.94,0-1.75-0.31-2.43-0.92c-0.68-0.62-1.02-1.38-1.02-2.3c0-2.24,2.42-8.71,7.25-19.42l-12.01-23.11l-1.51-2.45
		c-0.6-1.03-0.91-1.89-0.91-2.58c0-0.92,0.35-1.72,1.06-2.42c0.7-0.69,1.49-1.04,2.36-1.04c1.03,0,1.82,0.39,2.38,1.17
		c3.8,5.28,7.88,12.79,12.25,22.54l4.96-11.57c1.79-4,3.51-7.45,5.17-10.33c0.71-1.25,1.65-1.88,2.82-1.88
		c0.92,0,1.73,0.32,2.43,0.97c0.7,0.65,1.06,1.42,1.06,2.31C239.15,39.59,239,40.15,238.71,40.78z"/>
</g>
<g>
	<path d="M302.85,7.46c-20.59,0-37.28,16.69-37.28,37.28s16.69,37.28,37.28,37.28s37.28-16.69,37.28-37.28S323.44,7.46,302.85,7.46z
		 M279.39,35.88c-0.35,0.93-1.24,1.51-2.18,1.51c-0.27,0-0.55-0.05-0.83-0.15c-1.2-0.45-1.81-1.8-1.36-3
		c2.86-7.57,8.78-13.73,16.24-16.88c1.18-0.5,2.55,0.05,3.06,1.24c0.5,1.19-0.05,2.55-1.24,3.06
		C286.8,24.31,281.81,29.49,279.39,35.88z M302.85,58.83c-7.78,0-14.09-6.31-14.09-14.09s6.31-14.09,14.09-14.09
		s14.09,6.31,14.09,14.09S310.63,58.83,302.85,58.83z"/>
	<circle cx="302.85" cy="44.74" r="4.69"/>
</g>
<g>
	<g>
		<path d="M53.11,66.87c-2.57,3.2-6.25,4.86-10.22,5.62c-2.38,0.46-4.81,0.54-7.22,0.56c-1.28,0.01-2.57-0.01-3.85-0.03
			c-0.9-0.02-1.7-0.01-2.47-0.52c-2.68-1.8-5.18,2.53-2.52,4.32c2.26,1.52,5.29,1.23,7.88,1.24c3.03,0.01,6.06-0.13,9.05-0.65
			c4.87-0.85,9.75-3.07,12.89-6.99c0.84-1.05,1.03-2.51,0-3.54C55.78,66,53.96,65.81,53.11,66.87L53.11,66.87z"/>
	</g>
</g>
<g>
	<g>
		<path d="M25.81,49.21c0.05,0.09,0.09,0.19,0.14,0.29c-0.08-0.2-0.17-0.4-0.25-0.6c0.14,0.34,0.23,0.69,0.28,1.06
			c-0.03-0.22-0.06-0.44-0.09-0.66c0.05,0.39,0.04,0.78,0,1.17c0.03-0.22,0.06-0.44,0.09-0.66c-0.06,0.45-0.18,0.88-0.36,1.29
			c0.08-0.2,0.17-0.4,0.25-0.6c-0.17,0.39-0.38,0.75-0.64,1.09c0.13-0.17,0.26-0.34,0.39-0.51c-0.23,0.29-0.48,0.55-0.77,0.77
			c0.17-0.13,0.34-0.26,0.51-0.39c-0.27,0.21-0.56,0.38-0.88,0.52c0.2-0.08,0.4-0.17,0.6-0.25c-0.07,0.03-0.15,0.06-0.22,0.09
			c-0.62,0.23-1.15,0.56-1.49,1.15c-0.31,0.54-0.45,1.33-0.25,1.93c0.2,0.6,0.57,1.19,1.15,1.49c0.57,0.3,1.3,0.48,1.93,0.25
			c1.01-0.37,1.91-0.88,2.66-1.66c0.75-0.78,1.25-1.66,1.64-2.65c0.71-1.83,0.53-3.9-0.36-5.62c-0.6-1.17-2.33-1.6-3.42-0.9
			C25.52,46.55,25.17,47.96,25.81,49.21L25.81,49.21z"/>
	</g>
</g>
</svg>
